<svg width="966" height="932" viewBox="0 0 966 932" fill="none" xmlns="http://www.w3.org/2000/svg">
<g opacity="0.62">
<path d="M414.319 770.925C376.696 787.085 338.219 795.929 296.225 790.755C249.418 784.985 206.734 748.038 181.5 710.06C172.124 695.953 164.353 680.015 164.127 663.082C163.62 623.964 200.165 617.204 231.839 621.469C249.694 623.864 266.402 630.88 282.922 637.83C310.349 649.378 341.931 653.876 366.944 670.731C375.339 676.405 381.825 683.456 391.404 687.357C406.305 693.431 423.007 695.668 438.258 701.086C451.281 705.738 466.027 713.828 466.946 727.621C467.871 741.767 453.701 751.746 441.1 758.224C432.183 762.836 423.283 767.091 414.319 770.925Z" fill="url(#paint0_linear)"/>
<path d="M239.723 277.324C296.746 180.226 424.773 134.376 532.805 162.432C584.899 175.969 629.928 208.299 671.724 242.183C708.566 272.048 744.536 304.505 770.96 344.264C789.002 371.402 802.804 404.444 813.052 435.463C828.378 481.91 821.234 543.511 759.87 543.038C745.472 542.928 732.739 538.585 719.043 534.952C707.964 532.005 697.484 534.89 686.113 533.84C657.49 531.203 629.518 522.555 602.914 512.023C548.694 490.536 498.428 459.817 442.915 441.51C397.423 426.532 349.485 420.394 301.686 423.429C281.521 424.712 260.413 427.507 241.789 419.669C195.883 400.329 211.958 339.051 226.358 304.23C230.17 294.956 234.636 285.965 239.723 277.324Z" fill="url(#paint1_linear)"/>
<path d="M735.327 259.067C746.328 267.796 788.815 290.815 787.633 260.625C787.328 253.105 783.447 246.037 778.453 240.841C772.739 234.876 766.511 231.957 761.891 224.875C756.245 216.327 749.933 208.36 743.036 201.075C728.921 185.897 712.694 172.081 693.749 166.69C680.461 162.915 658.55 165.513 653.468 182.559C646.063 207.373 684.779 209.304 697.074 217.369C708.741 225 715.977 238.949 725.533 249.787C728.551 253.204 731.83 256.31 735.327 259.067Z" fill="url(#paint2_linear)"/>
<path d="M541.326 242.136C564.172 253.653 581.942 271.965 603.021 286.271C638.114 310.085 684.237 312.415 723.715 327.992C763.97 343.887 795.329 370.626 811.358 411.068C832.063 463.268 837.839 526.576 826.785 582.352C814.608 643.749 779.38 686.304 725.791 716.648C672.234 746.973 611.785 763.44 550.853 770C544.973 770.639 539.095 771.159 533.188 771.583C400.502 781.018 220.77 745.83 166.271 606.187C165.772 604.911 165.29 603.634 164.805 602.339C159.112 586.756 155.304 570.548 153.464 554.061C146.794 495.62 152.831 430.24 169.798 373.938C181.207 336.035 208.933 302.805 238.847 278.466C280.875 244.271 334.128 232.769 387.404 225.518C426.855 220.15 471.363 216.224 509.831 228.937C520.644 232.544 531.172 236.956 541.326 242.136Z" fill="url(#paint3_linear)"/>
</g>
<path d="M467.175 455.624C468.776 459.434 473.162 461.225 476.972 459.624L492.662 453.032C500.649 449.676 509.309 448.191 517.952 448.793C520.529 448.973 523.197 448.485 525.706 447.228C532.353 443.897 535.561 436.005 533.123 428.981C530.262 420.734 521.098 416.735 513.177 420.063C511.032 420.964 509.206 422.307 507.763 423.942C501.971 430.503 494.931 435.845 486.862 439.236L471.175 445.827C467.365 447.427 465.574 451.814 467.175 455.624Z" fill="#FB4C47"/>
<path d="M392.515 539.692C389.352 538.4 385.741 539.918 384.449 543.081L379.13 556.107C376.423 562.739 372.228 568.669 366.824 573.37C365.212 574.771 363.938 576.616 363.206 578.818C361.267 584.651 364.005 591.14 369.537 593.822C376.031 596.97 383.726 593.951 386.411 587.375C387.139 585.594 387.42 583.742 387.309 581.942C386.859 574.72 387.852 567.482 390.587 560.783L395.905 547.758C397.196 544.595 395.678 540.983 392.515 539.692Z" fill="#C63F3B"/>
<path d="M440.488 422.204C443.798 423.556 447.577 421.968 448.929 418.658L454.494 405.027C457.328 398.087 461.717 391.882 467.372 386.963C469.058 385.496 470.392 383.565 471.158 381.262C473.187 375.157 470.321 368.367 464.533 365.561C457.738 362.267 449.684 365.426 446.875 372.307C446.114 374.171 445.819 376.109 445.936 377.992C446.406 385.55 445.368 393.124 442.506 400.135L436.941 413.764C435.59 417.074 437.178 420.853 440.488 422.204Z" fill="#C63F3B"/>
<path d="M438.948 524.773C435.138 526.374 433.346 530.76 434.947 534.571L441.539 550.261C444.895 558.248 446.38 566.908 445.778 575.551C445.599 578.127 446.087 580.795 447.343 583.304C450.674 589.952 458.566 593.159 465.59 590.722C473.837 587.86 477.836 578.696 474.508 570.776C473.607 568.63 472.264 566.805 470.629 565.362C464.068 559.57 458.726 552.53 455.336 544.461L448.745 528.774C447.144 524.964 442.758 523.173 438.948 524.773Z" fill="#FB4C47"/>
<path d="M470.627 565.363C464.066 559.57 458.723 552.531 455.333 544.462L448.742 528.774C447.141 524.964 442.755 523.173 438.944 524.774C435.134 526.375 433.343 530.761 434.944 534.571L441.535 550.259C444.926 558.328 450.268 565.367 456.829 571.16C458.464 572.603 459.807 574.428 460.708 576.573C462.852 581.676 461.951 587.293 458.837 591.41C461.059 591.698 463.367 591.493 465.588 590.723C473.834 587.861 477.834 578.697 474.506 570.776C473.605 568.631 472.262 566.806 470.627 565.363Z" fill="#C63F3B"/>
<path d="M355.029 469.223C367.476 463.994 373.326 449.665 368.097 437.218C362.867 424.772 348.538 418.921 336.092 424.151C323.645 429.38 317.795 443.709 323.024 456.156C328.254 468.602 342.583 474.453 355.029 469.223Z" fill="#FF8F8C"/>
<path d="M336.097 424.15C333.69 425.161 331.533 426.516 329.652 428.129C339.947 427.232 350.086 432.976 354.304 443.015C358.522 453.054 355.528 464.316 347.682 471.041C350.15 470.826 352.627 470.234 355.034 469.223C367.481 463.993 373.331 449.664 368.102 437.218C362.872 424.771 348.543 418.921 336.097 424.15Z" fill="#FB4C47"/>
<path d="M449.405 549.668C490.046 532.593 509.149 485.805 492.074 445.164C474.999 404.524 428.211 385.42 387.57 402.496C346.929 419.571 327.826 466.359 344.901 507C361.977 547.64 408.765 566.744 449.405 549.668Z" fill="#FB4C47"/>
<path d="M387.57 402.495C385.244 403.473 382.991 404.552 380.808 405.718C419.675 393.481 462.18 412.647 478.277 450.961C494.375 489.274 478.315 533.047 442.371 552.242C444.731 551.498 447.079 550.645 449.406 549.668C490.047 532.592 509.15 485.804 492.075 445.163C475 404.523 428.211 385.42 387.57 402.495Z" fill="#C63F3B"/>
<path d="M441.796 454.281C450.051 450.812 453.932 441.309 450.463 433.053C446.995 424.798 437.491 420.918 429.236 424.386C420.98 427.855 417.1 437.359 420.569 445.614C424.037 453.869 433.541 457.749 441.796 454.281Z" fill="#C63F3B"/>
<path d="M429.234 424.387C426.745 425.432 424.657 427.03 423.045 428.974C428.874 429.458 434.242 433.085 436.664 438.851C439.087 444.617 437.921 450.989 434.186 455.491C436.703 455.7 439.305 455.327 441.795 454.281C450.05 450.813 453.93 441.309 450.462 433.054C446.993 424.798 437.49 420.918 429.234 424.387Z" fill="white"/>
<path d="M408.514 525.998C414.103 523.651 416.729 517.217 414.381 511.629C412.033 506.041 405.6 503.414 400.012 505.762C394.423 508.11 391.797 514.543 394.145 520.131C396.493 525.72 402.926 528.346 408.514 525.998Z" fill="white"/>
<path d="M497.278 523.421C504.898 520.22 508.48 511.447 505.278 503.827C502.076 496.206 493.304 492.624 485.683 495.826C478.063 499.028 474.481 507.801 477.683 515.421C480.885 523.041 489.657 526.623 497.278 523.421Z" fill="#FB4C47"/>
<path d="M485.683 495.827C483.169 496.883 481.097 498.548 479.561 500.576C484.686 501.229 489.334 504.518 491.48 509.625C493.625 514.731 492.721 520.352 489.601 524.471C492.124 524.793 494.763 524.479 497.277 523.423C504.898 520.221 508.479 511.448 505.278 503.828C502.076 496.208 493.303 492.625 485.683 495.827Z" fill="#C63F3B"/>
<path d="M369.791 496.54C371.392 500.35 369.602 504.736 365.791 506.337L350.102 512.929C342.114 516.285 334.993 521.432 329.373 528.026C327.698 529.992 325.482 531.556 322.828 532.468C315.797 534.885 307.915 531.652 304.604 524.994C300.717 517.179 304.275 507.834 312.195 504.506C314.341 503.605 316.578 503.241 318.755 503.355C327.495 503.81 336.238 502.521 344.307 499.131L359.995 492.54C363.804 490.939 368.191 492.73 369.791 496.54Z" fill="#C63F3B"/>
<path d="M398.035 427.389C401.845 425.788 403.637 421.402 402.036 417.591L395.443 401.902C392.088 393.914 390.603 385.254 391.205 376.612C391.384 374.035 390.896 371.367 389.639 368.858C386.309 362.211 378.417 359.003 371.392 361.44C363.146 364.302 359.146 373.466 362.474 381.387C363.376 383.532 364.719 385.357 366.354 386.8C372.915 392.593 378.257 399.632 381.647 407.701L388.239 423.389C389.839 427.199 394.225 428.99 398.035 427.389Z" fill="#FB4C47"/>
<path d="M389.64 368.858C386.31 362.21 378.418 359.003 371.393 361.44C368.459 362.458 366.067 364.276 364.347 366.55C369.154 367.174 373.565 370.11 375.843 374.655C377.099 377.164 377.588 379.832 377.408 382.409C376.806 391.051 378.291 399.712 381.647 407.699L388.239 423.389C389.839 427.198 394.226 428.99 398.036 427.389C401.847 425.788 403.637 421.402 402.036 417.591L395.444 401.902C392.088 393.914 390.604 385.254 391.206 376.612C391.385 374.035 390.898 371.367 389.64 368.858Z" fill="#C63F3B"/>
<path d="M514.738 420.452C512.578 421.313 510.729 422.621 509.257 424.229C508.997 424.513 508.731 424.792 508.465 425.071C513.903 425.84 518.756 429.584 520.612 435.269C522.2 440.131 521.107 445.354 518.087 449.184C518.385 449.205 518.684 449.223 518.982 449.249C521.554 449.475 524.229 449.037 526.759 447.827C533.463 444.621 536.813 436.793 534.506 429.729C531.798 421.436 522.714 417.271 514.738 420.452Z" fill="#C63F3B"/>
<g opacity="0.63">
<path d="M573.882 595.024C575.098 596.741 577.475 597.147 579.192 595.931L586.261 590.924C589.86 588.375 594 586.682 598.361 586.028C599.661 585.833 600.933 585.296 602.041 584.394C604.977 582.006 605.7 577.73 603.714 574.509C601.382 570.727 596.387 569.75 592.818 572.278C591.852 572.962 591.093 573.831 590.556 574.803C588.402 578.702 585.493 582.134 581.857 584.709L574.789 589.715C573.072 590.93 572.666 593.308 573.882 595.024Z" fill="#FFC700"/>
<path d="M540.189 635.854C538.475 635.561 536.848 636.714 536.555 638.428L535.349 645.488C534.735 649.082 533.305 652.491 531.138 655.424C530.492 656.298 530.062 657.355 529.942 658.53C529.622 661.642 531.698 664.565 534.743 665.287C538.317 666.135 541.808 663.786 542.417 660.222C542.582 659.257 542.517 658.305 542.263 657.423C541.243 653.884 540.938 650.178 541.558 646.547L542.764 639.488C543.056 637.774 541.903 636.147 540.189 635.854Z" fill="#D09700"/>
<path d="M551.068 572.179C552.862 572.485 554.565 571.279 554.871 569.485L556.133 562.098C556.775 558.337 558.272 554.769 560.539 551.701C561.215 550.786 561.665 549.679 561.791 548.45C562.126 545.193 559.953 542.135 556.767 541.379C553.027 540.492 549.374 542.95 548.737 546.68C548.564 547.69 548.632 548.685 548.897 549.608C549.965 553.312 550.284 557.19 549.636 560.989L548.374 568.376C548.068 570.17 549.274 571.872 551.068 572.179Z" fill="#D09700"/>
<path d="M561.613 623.32C559.897 624.536 559.49 626.913 560.706 628.63L565.713 635.699C568.262 639.298 569.955 643.438 570.61 647.799C570.805 649.099 571.342 650.371 572.243 651.479C574.632 654.415 578.907 655.138 582.129 653.152C585.911 650.82 586.888 645.825 584.36 642.256C583.675 641.29 582.807 640.531 581.835 639.994C577.936 637.84 574.504 634.931 571.929 631.295L566.923 624.227C565.707 622.51 563.33 622.104 561.613 623.32Z" fill="#FFC700"/>
<path d="M581.835 639.992C577.935 637.838 574.504 634.929 571.929 631.293L566.923 624.225C565.707 622.508 563.329 622.102 561.613 623.318C559.896 624.534 559.49 626.911 560.706 628.628L565.712 635.697C568.287 639.332 571.718 642.241 575.618 644.396C576.589 644.932 577.458 645.691 578.143 646.658C579.771 648.957 579.943 651.847 578.85 654.237C579.986 654.135 581.11 653.779 582.129 653.15C585.911 650.819 586.887 645.824 584.36 642.255C583.675 641.288 582.806 640.529 581.835 639.992Z" fill="#D09700"/>
<path d="M513.789 604.973C519.397 601.001 520.723 593.236 516.751 587.628C512.779 582.02 505.014 580.693 499.406 584.665C493.798 588.637 492.471 596.403 496.443 602.011C500.415 607.619 508.181 608.945 513.789 604.973Z" fill="#D09700"/>
<path d="M499.406 584.665C498.322 585.433 497.4 586.344 496.642 587.353C501.659 585.772 507.331 587.507 510.535 592.03C513.739 596.554 513.493 602.48 510.336 606.688C511.539 606.309 512.705 605.741 513.789 604.973C519.397 601.001 520.724 593.235 516.752 587.627C512.78 582.019 505.014 580.693 499.406 584.665Z" fill="#FFC700"/>
<path d="M569.556 634.537C587.867 621.568 592.198 596.21 579.229 577.899C566.26 559.588 540.902 555.257 522.591 568.226C504.28 581.195 499.949 606.553 512.918 624.864C525.887 643.175 551.244 647.506 569.556 634.537Z" fill="#FFC700"/>
<path d="M522.597 568.225C521.549 568.968 520.549 569.753 519.593 570.573C537.556 560.204 560.793 565.039 573.019 582.301C585.245 599.564 582.094 623.088 566.351 636.592C567.441 635.962 568.514 635.279 569.562 634.537C587.874 621.567 592.205 596.21 579.236 577.898C566.267 559.587 540.909 555.256 522.597 568.225Z" fill="#D09700"/>
<path d="M550.679 590.759C552.033 589.8 552.353 587.925 551.394 586.57C550.435 585.216 548.56 584.896 547.206 585.855C545.851 586.814 545.531 588.689 546.49 590.044C547.449 591.398 549.325 591.718 550.679 590.759Z" fill="white"/>
<path d="M546.622 627.287C549.14 625.503 549.736 622.016 547.953 619.498C546.169 616.98 542.682 616.384 540.164 618.167C537.646 619.951 537.05 623.438 538.834 625.956C540.617 628.474 544.104 629.07 546.622 627.287Z" fill="white"/>
<path d="M528.987 603.846C532.842 601.116 533.754 595.777 531.023 591.922C528.293 588.067 522.954 587.155 519.099 589.885C515.243 592.616 514.332 597.954 517.062 601.81C519.793 605.665 525.131 606.577 528.987 603.846Z" fill="white"/>
<path d="M590.446 616.213C593.88 613.781 594.692 609.026 592.26 605.593C589.828 602.159 585.073 601.347 581.64 603.779C578.206 606.211 577.394 610.965 579.826 614.399C582.258 617.832 587.013 618.644 590.446 616.213Z" fill="#FFC700"/>
<path d="M581.641 603.779C580.509 604.581 579.663 605.637 579.123 606.815C581.742 606.574 584.415 607.695 586.045 609.996C587.674 612.297 587.845 615.19 586.749 617.581C588.038 617.463 589.315 617.016 590.448 616.213C593.882 613.781 594.693 609.027 592.262 605.593C589.83 602.16 585.075 601.347 581.641 603.779Z" fill="#D09700"/>
<path d="M524.137 616.919C525.353 618.636 524.947 621.013 523.23 622.229L516.161 627.236C512.562 629.785 509.591 633.128 507.526 637.025C506.911 638.186 505.982 639.208 504.764 639.954C501.536 641.931 497.263 641.194 494.883 638.251C492.09 634.796 492.826 629.76 496.395 627.232C497.362 626.548 498.433 626.12 499.528 625.936C503.921 625.198 508.124 623.593 511.759 621.018L518.828 616.012C520.544 614.796 522.921 615.202 524.137 616.919Z" fill="#D09700"/>
<path d="M530.539 579.443C532.255 578.227 532.662 575.85 531.446 574.133L526.439 567.064C523.89 563.465 522.197 559.325 521.542 554.964C521.347 553.664 520.81 552.392 519.909 551.284C517.521 548.348 513.245 547.625 510.023 549.611C506.241 551.943 505.265 556.938 507.792 560.507C508.477 561.473 509.346 562.232 510.317 562.769C514.217 564.923 517.648 567.832 520.223 571.468L525.229 578.536C526.445 580.253 528.822 580.659 530.539 579.443Z" fill="#FFC700"/>
<path d="M519.907 551.284C517.518 548.348 513.243 547.625 510.021 549.611C508.675 550.441 507.687 551.608 507.083 552.928C509.541 552.707 512.057 553.68 513.69 555.687C514.591 556.795 515.128 558.067 515.323 559.367C515.978 563.729 517.671 567.868 520.22 571.467L525.227 578.536C526.442 580.253 528.82 580.659 530.537 579.443C532.253 578.227 532.659 575.85 531.444 574.133L526.437 567.064C523.888 563.465 522.195 559.326 521.54 554.964C521.345 553.664 520.808 552.392 519.907 551.284Z" fill="#D09700"/>
</g>
<path d="M625.172 511.391C622.815 510.841 620.458 512.305 619.907 514.662L617.64 524.369C616.486 529.31 614.213 533.927 610.957 537.819C609.986 538.979 609.3 540.412 609.033 542.034C608.328 546.332 610.968 550.566 615.137 551.824C620.031 553.302 625.078 550.331 626.223 545.431C626.533 544.104 626.523 542.776 626.244 541.53C625.124 536.528 625.01 531.353 626.176 526.361L628.443 516.656C628.994 514.299 627.529 511.942 625.172 511.391Z" fill="#1DB776"/>
<path d="M610.973 447.088C612.672 446.031 613.194 443.797 612.138 442.097L607.789 435.097C605.575 431.534 604.205 427.506 603.833 423.327C603.722 422.081 603.286 420.842 602.493 419.738C600.393 416.814 596.375 415.882 593.201 417.583C589.476 419.58 588.262 424.268 590.458 427.802C591.053 428.759 591.834 429.529 592.726 430.095C596.305 432.364 599.397 435.323 601.633 438.923L605.982 445.922C607.039 447.622 609.273 448.144 610.973 447.088Z" fill="#128E5A"/>
<path d="M650.196 510.223C648.417 511.328 647.871 513.666 648.976 515.445L653.527 522.77C655.844 526.499 657.277 530.714 657.666 535.087C657.782 536.391 658.239 537.687 659.069 538.842C661.266 541.903 665.471 542.878 668.792 541.098C672.69 539.007 673.96 534.102 671.663 530.405C671.04 529.403 670.222 528.597 669.289 528.005C665.544 525.63 662.309 522.534 659.968 518.767L655.418 511.443C654.312 509.664 651.974 509.118 650.196 510.223Z" fill="#128E5A"/>
<path d="M602.083 474.233C602.633 471.875 601.169 469.518 598.812 468.968L589.105 466.7C584.164 465.546 579.547 463.273 575.655 460.017C574.495 459.046 573.062 458.36 571.44 458.094C567.143 457.388 562.909 460.028 561.65 464.197C560.172 469.091 563.143 474.138 568.043 475.283C569.371 475.593 570.698 475.583 571.944 475.304C576.946 474.184 582.121 474.07 587.113 475.236L596.818 477.503C599.175 478.054 601.532 476.59 602.083 474.233Z" fill="#1DB776"/>
<path d="M571.946 475.304C576.948 474.184 582.123 474.071 587.115 475.237L596.82 477.504C599.177 478.054 601.534 476.59 602.085 474.233C602.635 471.875 601.171 469.518 598.814 468.968L589.109 466.701C584.117 465.535 578.942 465.648 573.94 466.768C572.693 467.048 571.366 467.057 570.039 466.747C566.882 466.01 564.528 463.652 563.646 460.759C562.746 461.714 562.05 462.879 561.652 464.197C560.174 469.092 563.145 474.138 568.045 475.283C569.372 475.593 570.699 475.584 571.946 475.304Z" fill="#128E5A"/>
<path d="M657.274 453.534C655.475 461.234 660.259 468.934 667.959 470.733C675.659 472.532 683.359 467.748 685.158 460.047C686.957 452.347 682.173 444.647 674.473 442.849C666.772 441.05 659.072 445.834 657.274 453.534Z" fill="#128E5A"/>
<path d="M685.16 460.049C685.508 458.56 685.607 457.072 685.489 455.625C682.375 460.816 676.166 463.649 669.955 462.198C663.744 460.748 659.433 455.457 658.941 449.424C658.194 450.668 657.624 452.046 657.276 453.536C655.477 461.236 660.261 468.936 667.961 470.735C675.661 472.533 683.362 467.749 685.16 460.049Z" fill="#1DB776"/>
<path d="M586.681 470.636C580.808 495.779 596.429 520.922 621.572 526.795C646.714 532.668 671.857 517.047 677.73 491.904C683.603 466.762 667.982 441.619 642.839 435.746C617.697 429.873 592.554 445.494 586.681 470.636Z" fill="#1DB776"/>
<path d="M677.739 491.903C678.075 490.464 678.337 489.024 678.535 487.588C670.977 510.226 647.277 523.795 623.574 518.258C599.871 512.721 584.634 490.058 587.887 466.415C587.428 467.789 587.026 469.196 586.69 470.636C580.817 495.778 596.438 520.921 621.58 526.794C646.723 532.667 671.866 517.046 677.739 491.903Z" fill="#128E5A"/>
<path d="M634.529 499.818C633.336 504.925 636.509 510.032 641.616 511.225C646.723 512.418 651.83 509.245 653.023 504.138C654.216 499.031 651.043 493.923 645.936 492.73C640.829 491.537 635.722 494.71 634.529 499.818Z" fill="#128E5A"/>
<path d="M653.033 504.136C653.393 502.596 653.353 501.057 652.985 499.624C650.752 502.222 647.187 503.521 643.62 502.688C640.053 501.854 637.431 499.111 636.58 495.792C635.616 496.914 634.898 498.276 634.538 499.816C633.346 504.923 636.519 510.031 641.626 511.224C646.733 512.417 651.84 509.244 653.033 504.136Z" fill="white"/>
<path d="M611.964 459.38C611.157 462.837 613.305 466.294 616.762 467.102C620.219 467.91 623.677 465.762 624.484 462.304C625.292 458.847 623.144 455.39 619.686 454.582C616.229 453.774 612.772 455.922 611.964 459.38Z" fill="white"/>
<path d="M582.671 502.36C581.57 507.075 584.499 511.79 589.214 512.891C593.929 513.992 598.644 511.063 599.745 506.348C600.846 501.633 597.917 496.918 593.202 495.817C588.487 494.716 583.772 497.645 582.671 502.36Z" fill="#1DB776"/>
<path d="M599.749 506.347C600.112 504.791 600.034 503.236 599.601 501.811C597.529 504.017 594.371 505.091 591.212 504.353C588.052 503.615 585.697 501.253 584.817 498.357C583.796 499.443 583.038 500.803 582.674 502.358C581.573 507.073 584.503 511.788 589.217 512.89C593.932 513.991 598.648 511.062 599.749 506.347Z" fill="#128E5A"/>
<path d="M639.244 451.146C636.887 450.596 635.422 448.239 635.973 445.882L638.24 436.175C639.394 431.234 639.402 426.087 638.207 421.156C637.85 419.686 637.87 418.097 638.35 416.525C639.621 412.36 643.863 409.733 648.158 410.452C653.201 411.295 656.41 416.194 655.265 421.095C654.955 422.422 654.358 423.608 653.556 424.601C650.336 428.59 647.941 433.179 646.775 438.17L644.508 447.876C643.958 450.232 641.601 451.697 639.244 451.146Z" fill="#128E5A"/>
<path d="M662.332 488.307C661.781 490.664 663.246 493.021 665.603 493.572L675.31 495.839C680.251 496.994 684.868 499.267 688.76 502.523C689.92 503.494 691.353 504.18 692.975 504.446C697.272 505.152 701.506 502.512 702.765 498.343C704.242 493.448 701.272 488.401 696.372 487.257C695.044 486.947 693.717 486.956 692.471 487.235C687.468 488.356 682.294 488.469 677.302 487.303L667.597 485.036C665.24 484.486 662.883 485.95 662.332 488.307Z" fill="#1DB776"/>
<path d="M692.973 504.444C697.271 505.15 701.505 502.51 702.764 498.341C703.289 496.6 703.25 494.84 702.763 493.243C700.814 495.308 697.906 496.391 694.967 495.908C693.346 495.642 691.912 494.956 690.752 493.985C686.861 490.729 682.243 488.456 677.302 487.301L667.596 485.034C665.239 484.484 662.881 485.948 662.331 488.305C661.78 490.663 663.244 493.02 665.602 493.57L675.308 495.837C680.25 496.992 684.867 499.265 688.758 502.521C689.919 503.492 691.352 504.178 692.973 504.444Z" fill="#128E5A"/>
<path d="M626.221 545.437C626.53 544.11 626.521 542.784 626.242 541.538C626.193 541.318 626.148 541.096 626.102 540.875C623.911 543.23 620.486 544.308 617.132 543.295C614.264 542.429 612.121 540.154 611.292 537.42C611.182 537.556 611.074 537.694 610.961 537.828C609.991 538.988 609.305 540.42 609.039 542.041C608.334 546.337 610.972 550.569 615.14 551.827C620.032 553.304 625.076 550.335 626.221 545.437Z" fill="#128E5A"/>
<defs>
<linearGradient id="paint0_linear" x1="161.059" y1="668.687" x2="210.076" y2="804.827" gradientUnits="userSpaceOnUse">
<stop stop-color="#FFD8D8"/>
<stop offset="1" stop-color="#FFF8F8"/>
</linearGradient>
<linearGradient id="paint1_linear" x1="807.47" y1="323.693" x2="370.853" y2="86.3448" gradientUnits="userSpaceOnUse">
<stop stop-color="#FFF8F8"/>
<stop offset="1" stop-color="#FFCFCF"/>
</linearGradient>
<linearGradient id="paint2_linear" x1="788.658" y1="260.027" x2="630.938" y2="204.505" gradientUnits="userSpaceOnUse">
<stop stop-color="#FFD7D7"/>
<stop offset="1" stop-color="#FFF9F9"/>
</linearGradient>
<linearGradient id="paint3_linear" x1="782.235" y1="694.48" x2="142.067" y2="377.53" gradientUnits="userSpaceOnUse">
<stop stop-color="#FFCFCF"/>
<stop offset="1" stop-color="#FFF8F8"/>
</linearGradient>
</defs>
</svg>
